<?xml version="1.0" standalone="no"?><!DOCTYPE svg PUBLIC "-//W3C//DTD SVG 1.1//EN" "http://www.w3.org/Graphics/SVG/1.1/DTD/svg11.dtd"><svg t="1581325383863" class="icon" viewBox="0 0 1024 1024" version="1.1" xmlns="http://www.w3.org/2000/svg" p-id="1146" xmlns:xlink="http://www.w3.org/1999/xlink" width="200" height="200"><defs><style type="text/css"></style></defs><path d="M790.804727 993.473276c-12.282942 0-25.469042-3.431999-38.655142-10.476628l-197.249603-103.682483c-22.037044-11.560416-62.317869-11.560416-84.354912 0l-197.249603 103.682483c-26.552831 13.908626-52.563768 13.908626-71.710708 0-19.146939-13.908626-27.275357-38.835774-22.217675-68.278708l37.751985-219.64791c4.154525-24.565885-8.128418-62.859764-26.010937-80.200388l-159.497619-155.523726C9.934733 438.392662 1.806315 413.646146 9.212207 391.067208c7.22526-22.398307 28.539778-37.751984 58.163344-42.087141l220.551067-31.971776c24.746516-3.61263 57.260187-27.275357 68.278709-49.673664l98.624802-199.778444c13.1861-26.914094 34.319986-42.267772 57.982713-42.267772 23.662727 0 44.796613 15.353678 57.982713 42.267772L669.239725 267.334627c11.018522 22.398307 43.532193 46.061034 68.278709 49.673664l220.551067 31.971776c29.623567 4.335156 50.757453 19.688834 58.163344 42.087141 7.22526 22.398307-0.722526 47.325454-22.217675 68.278708L834.517552 614.869642c-17.882519 17.340624-30.346093 55.634503-26.010937 80.200388l37.751984 219.64791c5.057682 29.442935-3.070736 54.370083-22.217675 68.278708-9.754101 6.863997-21.133886 10.476627-33.236197 10.476628z m-278.172517-188.39866c26.010937 0 51.841242 5.418945 72.613865 16.256836l195.985183 102.959957L743.840536 706.269183c-7.947786-46.061034 11.379785-105.488799 44.977245-138.183101l158.594461-154.620568-219.106015-31.791145c-46.241665-6.683366-96.818487-43.351561-117.59111-85.438701L512.63221 97.721644 414.549303 296.235668c-20.772623 41.906509-71.168813 78.574705-117.591109 85.438701L78.03281 413.465514l158.594461 154.620568c33.416828 32.694302 52.744399 92.122067 44.977245 138.183101l-37.390722 218.202858 195.985183-102.959958c20.591992-11.018522 46.422297-16.437467 72.433233-16.437467z" fill="#d81e06" p-id="1147"></path></svg>