<?xml version="1.0" standalone="no"?><!DOCTYPE svg PUBLIC "-//W3C//DTD SVG 1.1//EN" "http://www.w3.org/Graphics/SVG/1.1/DTD/svg11.dtd"><svg t="1580462053990" class="icon" viewBox="0 0 1024 1024" version="1.1" xmlns="http://www.w3.org/2000/svg" p-id="1859" xmlns:xlink="http://www.w3.org/1999/xlink" width="200" height="200"><defs><style type="text/css"></style></defs><path d="M864.23552 486.29248l91.52-222.16192c12.05248-30.59712-5.0432-55.5776-38.272-55.5776H331.4432l-4.89472-34.36032c-5.87776-28.97408-32.49664-50.53952-62.24384-50.53952H109.48096c-24.9088 0-45.10208 20.06016-45.10208 44.80512 0 24.74496 20.19328 44.81024 45.10208 44.81024h132.97664l85.97504 423.97696c-55.64416 16.67072-96.18432 67.94752-96.18432 128.6656 0 74.24512 60.57472 134.4256 135.296 134.4256s135.296-60.18048 135.296-134.4256c0-16.6144-3.17952-32.46592-8.7296-47.1552h182.5792a133.05856 133.05856 0 0 0-8.7296 47.1552c0 74.24512 60.5696 134.4256 135.30112 134.4256 74.72128 0 135.296-60.18048 135.296-134.4256 0-69.0432-52.41344-125.86496-119.85408-133.48352a45.1328 45.1328 0 0 0-16.79872-3.29216H418.80576l-17.69984-87.2704h381.15328c33.05984 0.00512 69.89312-24.87296 81.97632-55.57248z m-60.96384 324.43392c-24.9088 0-45.10208-20.06016-45.10208-44.80512 0-24.75008 20.18816-44.81024 45.10208-44.81024 24.90368 0 45.09696 20.06016 45.09696 44.81024-0.00512 24.74496-20.19328 44.80512-45.09696 44.80512z m-390.62016-44.80512c0 24.74496-20.19328 44.80512-45.09696 44.80512-24.9088 0-45.10208-20.06016-45.10208-44.80512 0-24.75008 20.19328-44.81024 45.10208-44.81024 24.90368 0 45.09696 20.06016 45.09696 44.81024z" fill="#8a8a8a" p-id="1860"></path></svg>