<?xml version="1.0" standalone="no"?><!DOCTYPE svg PUBLIC "-//W3C//DTD SVG 1.1//EN" "http://www.w3.org/Graphics/SVG/1.1/DTD/svg11.dtd"><svg t="1580462041006" class="icon" viewBox="0 0 1024 1024" version="1.1" xmlns="http://www.w3.org/2000/svg" p-id="1625" xmlns:xlink="http://www.w3.org/1999/xlink" width="200" height="200"><defs><style type="text/css"></style></defs><path d="M192 149.33504h213.33504c47.1296 0 85.33504 38.20544 85.33504 85.33504V448a42.66496 42.66496 0 0 1-42.66496 42.66496h-256a42.66496 42.66496 0 0 1-42.66496-42.66496v-256a42.6496 42.6496 0 0 1 42.65984-42.66496z m512 341.32992c-94.2592 0.01024-170.6752-76.3904-170.69056-170.6496-0.01024-94.25408 76.3904-170.6752 170.6496-170.68544h0.04096c94.2592 0.01024 170.65984 76.43136 170.64448 170.68544-0.01024 94.24384-76.40576 170.63936-170.64448 170.6496z m-512 42.66496h213.33504c47.1296 0 85.33504 38.21056 85.33504 85.34016V832a42.66496 42.66496 0 0 1-42.66496 42.67008h-256a42.66496 42.66496 0 0 1-42.66496-42.67008v-256a42.65472 42.65472 0 0 1 42.65984-42.67008z m384 0h213.32992c47.1296 0 85.34016 38.21056 85.34016 85.34016V832a42.67008 42.67008 0 0 1-42.67008 42.67008h-256a42.67008 42.67008 0 0 1-42.67008-42.67008v-256a42.67008 42.67008 0 0 1 42.67008-42.67008z" fill="#8a8a8a" p-id="1626"></path></svg>